# xmcd
#
# Track frame offsets:
#	150
#	20217
#	46101
#	65628
#	83245
#	111212
#	142397
#	170486
#	217711
#	245233
#	268615
#	293694
#	312239
#
# Disc length: 4478
#
# Revision: 2
# Processed by: cddbd v1.5.1PL0 Copyright (c) Steve Scherf et al.
# Submitted via: EasyCDDAExtractor 7.0.6.1
# Normalized: r1:DSETVAR1
#
DISCID=c6117c0d
DTITLE=Various Artist - Advanced Warning DC 015
DYEAR=1995
DGENRE=Dance
TTITLE0=Sotto Voce - Higher and Higher (Subwoofer DJ Friendly 12" Mix)
TTITLE1=Pilato and Monti - Gam Gam (Milan Version)
TTITLE2=20 Fingers Feat. Roula - Lick It (20 Fingers Club Mix)
TTITLE3=Moby - Everytime You Touch Me (Beatmasters 7" Mix)
TTITLE4=Sphinx - What Hope Have I (Juniors Factory Mix)
TTITLE5=Camille - A Deeper Shade Of Love (Euro Mix)
TTITLE6=Reel 2 Real - Conway (Erick "Moore Club Mix)
TTITLE7=Winx - Don't Laugh (Sound Factory Mix)
TTITLE8=Joanne Farrell - All I Wanna Do (Club Mix)
TTITLE9=Los Del Mar - Macarena (Mar Fe Mix)
TTITLE10=Intonation Feat. Joee - Died In Your Arms (Club Mix)
TTITLE11=Adina Howard - Freak Like Me (Radio Version)
TTITLE12=Deee-Lite - Groove Is In The Heart
EXTD=
EXTT0=
EXTT1=
EXTT2=
EXTT3=
EXTT4=
EXTT5=
EXTT6=
EXTT7=
EXTT8=
EXTT9=
EXTT10=
EXTT11=
EXTT12=
PLAYORDER=
